<svg xmlns="http://www.w3.org/2000/svg" viewBox="0 0 221 84" class="c-logo__svg">
    <polygon class="c-logo__path" points="26.6 48.9 22.2 32 16.5 32 12 48.9 8 32 0.3 32 7.8 60.8 14.7 60.8 19.2 43.9 23.7 60.8 30.6 60.8 38.2 32 30.6 32 "/>
    <polygon class="c-logo__path" points="39.7 60.8 60.3 60.8 60.3 54.3 47.1 54.3 47.1 49.3 59.2 49.3 59.2 43 47.1 43 47.1 38.5 60.3 38.5 60.3 32 39.7 32 "/>
    <path class="c-logo__path" d="M86.5 41.8c0-6.3-4.3-9.8-10.5-9.8h-13v28.8h7.5v-9.5h2.6l6 9.5h8.4l-6.8-10.3C84.3 49.2 86.5 46.2 86.5 41.8M75.3 45.3h-4.7v-6.9h4.7c2.7 0 3.9 1.4 3.9 3.5C79.2 43.9 78 45.3 75.3 45.3"/>
    <path class="c-logo__path" d="M101.8 38.1c2.6 0 4.2 1.4 4.9 3.5h7.5c-1-5.9-5.3-10.1-12.4-10.1 -8.1 0-13.9 6.2-13.9 14.9 0 8.7 5.8 14.9 13.9 14.9 7.2 0 11.4-4.3 12.4-10.2h-7.5c-0.8 2.2-2.3 3.6-4.9 3.6 -4 0-6.2-3.6-6.2-8.3C95.6 41.7 97.8 38.1 101.8 38.1"/>
    <polygon class="c-logo__path" points="135.2 42.9 124 42.9 124 32 116.5 32 116.5 60.8 124 60.8 124 49.4 135.2 49.4 135.2 60.8 142.7 60.8 142.7 32 135.2 32 "/>
    <polygon class="c-logo__path" points="144.8 38.5 153.7 38.5 153.7 60.8 161.2 60.8 161.2 38.5 170.2 38.5 170.2 32 144.8 32 "/>
    <polygon class="c-logo__path" points="172.3 60.8 192.9 60.8 192.9 54.3 179.7 54.3 179.7 49.3 191.8 49.3 191.8 43 179.7 43 179.7 38.5 192.9 38.5 192.9 32 172.3 32 "/>
    <path class="c-logo__path" d="M213.4 50.5c3.5-1.3 5.7-4.3 5.7-8.7 0-6.3-4.3-9.8-10.5-9.8h-13v28.8h7.5v-9.5h2.6l6 9.5h8.4L213.4 50.5zM207.9 45.3h-4.7v-6.9h4.7c2.7 0 3.9 1.4 3.9 3.5C211.8 43.9 210.6 45.3 207.9 45.3"/>
    <path class="c-logo__path" d="M44.4 29.7c-8.8 0-15.1-6.5-15.1-14.9 0-4.9 2.3-9.2 5.9-11.9C37.8 1.1 40.9 0 44.4 0c8.9 0 15.2 6.5 15.2 14.8C59.6 23.1 53.3 29.7 44.4 29.7M44.4 23.7c4.6 0 6.3-2.6 6.3-8.9 0-6.3-1.7-8.6-6.3-8.6 -4.7 0-6.4 2.3-6.4 8.6C38.1 21.1 39.8 23.7 44.4 23.7"/>
    <path class="c-logo__path" d="M83.5 0.8h5.6v11.6h-5.7c-0.2-4.1-3.1-6-6.2-6 -3.5 0-7.2 2.4-7.2 8.2 0 5.8 4 8.4 7.7 8.4 2.8 0 5.4-1.4 6.7-5.1l5.2 2.9c-0.9 4.8-5.5 8.8-12.1 8.8 -10.2 0-15.8-6.1-15.8-15C61.7 4.5 69.2 0 75.5 0c3.2 0 6.9 1.5 8.1 4.6L83.5 0.8z"/>
    <polygon class="c-logo__path" points="106.5 24.1 106.5 28.9 91.2 28.9 91.2 24.1 95.4 24.1 95.4 5.6 91.2 5.6 91.2 0.8 106.3 0.8 106.3 5.6 103 5.6 103 14.3 112.8 5.6 108.6 5.6 108.6 0.8 122.8 0.8 122.8 5.6 119.9 5.6 111.3 12.8 121.8 24.1 124 24.1 124 28.9 108.8 28.9 108.8 24.1 112.4 24.1 106.2 17.1 103 19.8 103 24.1 "/>
    <path class="c-logo__path" d="M26 20.1c0.6 2 1 3.3 1.4 4.6 0.4 1.3 1.6 2.1 4.3 1.6 0.5-0.1-1.1 3.3-6.2 3.3 -3.1 0-4.6-1.5-5.6-4.5 -1.5-4.6-2.3-7.1-4.9-7.1h-2.9v6.3h3.6v4.7H0v-4.7h4.5V5.6H0V0.9h17.7C24.5 1 28.1 4.6 28.1 8.4c0 3.6-2.5 6.5-7.6 6.6v0.4C24.3 15.5 25.1 17.2 26 20.1M16.3 5.6h-4.2v7.6h3.2c4.4 0 5.2-2.1 5.2-3.8C20.5 7.8 19.2 5.6 16.3 5.6"/>
    <path class="c-logo__path" d="M4.8 75.6H1.7V64.5h11.3v3.5h-8v3.9C5.5 71.4 6.7 71 8 71c3.7 0 6.2 2.6 6.2 6.4 0 3.9-2.7 6.6-6.6 6.6 -4 0-6.7-2.5-7-6.3h3.9c0.2 1.7 1.3 2.8 3.1 2.8 1.8 0 2.8-1.3 2.8-3.2 0-1.8-1.1-3.1-2.9-3.1C6.3 74.3 5.4 74.9 4.8 75.6"/>
    <rect class="c-logo__path" x="15.9" y="73.8"  width="7.5" height="3.4"/>
    <path class="c-logo__path" d="M35.7 69.3c-0.4-1.2-1.2-1.9-2.5-1.9 -2.3 0-3.7 2.7-3.7 5.4v0.3c0.6-1.2 2.2-2 4-2 3.9 0 6.3 2.9 6.3 6.3 0 3.6-2.5 6.6-6.8 6.6 -2.4 0-4.5-1.1-5.8-3.5 -1-1.7-1.3-3.6-1.3-6 0-6 2.8-10.3 7.4-10.3 3.6 0 5.8 1.9 6.4 5.2H35.7zM33 80.7c1.8 0 3.2-1.3 3.2-3.2 0-2-1.3-3.3-3.2-3.3 -1.9 0-3.2 1.3-3.2 3.3C29.8 79.4 31.1 80.7 33 80.7"/>
    <rect class="c-logo__path" x="41.8" y="73.8"  width="7.5" height="3.4"/>
    <polygon class="c-logo__path" points="53.7 83.7 49.7 83.7 55.8 68 47 68 47 64.5 60 64.5 60 67.3 "/>
    <rect class="c-logo__path" x="60.3" y="73.8"  width="7.5" height="3.4"/>
    <path class="c-logo__path" d="M70.4 78.4c0-2.4 1.5-4.1 3.3-4.6 -1.6-0.7-2.8-2.2-2.8-4.3 0-3.5 2.9-5.4 6.3-5.4 3.3 0 6.3 1.9 6.3 5.4 0 2-1.2 3.6-2.8 4.3 1.8 0.5 3.4 2.2 3.4 4.6 0 3.5-3.1 5.6-6.9 5.6C73.5 84 70.4 81.9 70.4 78.4M80.4 78.1c0-1.7-1.3-2.7-3-2.7 -1.8 0-3.1 1-3.1 2.7 0 1.7 1.3 2.7 3.1 2.7C79.1 80.8 80.4 79.8 80.4 78.1M80 69.7c0-1.6-1.2-2.5-2.6-2.5 -1.4 0-2.6 0.9-2.6 2.5 0 1.5 1.2 2.4 2.6 2.4C78.8 72.1 80 71.2 80 69.7"/>
    <path class="c-logo__path" d="M96.4 77.6c0.2 1.8 1.1 2.8 2.8 2.8 2 0 3-1.2 3-3.7V64.5h4v12.3c0 4.9-2.8 7.3-6.9 7.3 -4.4 0-6.7-2.7-7-6.4H96.4z"/>
    <path class="c-logo__path" d="M109 76V64.5h4v11.1c0 3.3 1.4 4.9 4 4.9 2.5 0 4-1.6 4-4.9V64.5h4V76c0 5.3-3.2 8-8 8C112.2 84 109 81.2 109 76"/>
    <polygon class="c-logo__path" points="128 64.5 132 64.5 132 80.1 141 80.1 141 83.7 128 83.7 "/>
    <polygon class="c-logo__path" points="153.1 64.5 157.4 64.5 150.4 76.4 150.4 83.7 146.4 83.7 146.4 76.4 139.5 64.5 143.8 64.5 148.5 72.6 "/>
    <path class="c-logo__path" d="M171.2 67.7c-1.6 0-2.5 1.2-2.6 2.7h-4.1c0.4-3.6 2.9-6.2 6.7-6.2 4 0 6.4 2.3 6.4 5.7 0 2.4-1.8 4.3-3.8 6.4l-3.7 4h7.7v3.5h-13.3v-2.6l6.1-6.4c1.7-1.8 3-3.2 3-4.6C173.6 68.7 172.7 67.7 171.2 67.7"/>
    <path class="c-logo__path" d="M179.4 74.1c0-5.9 3.1-9.9 7.6-9.9 4.5 0 7.6 4.1 7.6 9.9 0 5.9-3.1 9.9-7.6 9.9C182.5 84 179.4 79.9 179.4 74.1M183.3 74.1c0 3.6 1.1 6.4 3.7 6.4 2.6 0 3.7-2.8 3.7-6.4 0-3.6-1.1-6.4-3.7-6.4C184.4 67.7 183.3 70.5 183.3 74.1"/>
    <polygon class="c-logo__path" points="204.2 83.7 200.3 83.7 200.3 69 195.8 71.3 195.8 67.3 201.6 64.5 204.2 64.5 "/>
    <path class="c-logo__path" d="M206.6 78.4c0-2.4 1.5-4.1 3.3-4.6 -1.6-0.7-2.8-2.2-2.8-4.3 0-3.5 2.9-5.4 6.3-5.4 3.3 0 6.3 1.9 6.3 5.4 0 2-1.2 3.6-2.8 4.3 1.8 0.5 3.4 2.2 3.4 4.6 0 3.5-3.1 5.6-6.9 5.6C209.7 84 206.6 81.9 206.6 78.4M216.6 78.1c0-1.7-1.3-2.7-3-2.7 -1.8 0-3.1 1-3.1 2.7 0 1.7 1.3 2.7 3.1 2.7C215.3 80.8 216.6 79.8 216.6 78.1M216.2 69.7c0-1.6-1.2-2.5-2.6-2.5 -1.4 0-2.6 0.9-2.6 2.5 0 1.5 1.2 2.4 2.6 2.4C215 72.1 216.2 71.2 216.2 69.7"/>
</svg>
