<svg xmlns="http://www.w3.org/2000/svg" viewBox="0 0 200 200">
  <defs>
    <style>
      .a {
        fill: #fff;
      }

      .b {
        fill: #ff008b;
      }

      .c {
        fill: #130402;
      }

      .d {
        fill: #00bc00;
      }

      .e {
        fill: #fd0;
      }

      .f {
        fill: #25408e;
      }

      .g {
        fill: #00c8ff;
      }
    </style>
  </defs>
  <title>pattern-1</title>
  <g>
    <polygon class="a" points="500.156 200 500.156 127.602 372.556 0 -99.529 0 100.472 200 500.156 200"/>
    <polygon class="b" points="500.156 200 500.156 0 164.03 0 364.029 200 500.156 200"/>
    <polygon class="c" points="248.691 200 48.691 0 32.436 0 232.436 200 248.691 200"/>
    <polygon class="c" points="281.087 200 81.087 0 64.833 0 264.833 200 281.087 200"/>
    <polygon class="c" points="313.484 200 113.484 0 97.235 0 297.235 200 313.484 200"/>
    <polygon class="c" points="345.886 200 145.885 0 129.631 0 329.632 200 345.886 200"/>
    <polygon class="c" points="216.295 200 16.294 0 0.039 0 200.039 200 216.295 200"/>
    <polygon class="d" points="186.178 200 -13.822 0 -161.38 0 38.62 200 186.178 200"/>
    <polygon class="e" points="53.645 200 -146.355 0 -202.6 0 -2.6 200 53.645 200"/>
    <polygon class="f" points="158.702 200 -41.298 0 -66.799 0 133.201 200 158.702 200"/>
    <polygon class="g" points="83.691 200 -116.309 0 -147.622 0 52.378 200 83.691 200"/>
  </g>
</svg>
