<svg xmlns="http://www.w3.org/2000/svg" viewBox="0 0 200 200">
  <defs>
    <style>
      .a {
        fill: blue;
      }

      .b {
        fill: #fff;
      }

      .c {
        fill: red;
      }
    </style>
  </defs>
  <title>pattern-2</title>
  <g>
    <rect class="a" x="0.0004" y="0.00053" width="199.70245" height="199.70252"/>
    <g>
      <polygon class="b" points="0 205.703 0 -1.902 125.085 -1.902 26.839 102.055 125.085 205.703 0 205.703"/>
      <polygon points="51.231 131.447 0.001 131.447 0.001 137.173 56.65 137.173 51.231 131.447"/>
      <polygon points="40.427 120.037 0.001 120.037 0.001 125.762 45.847 125.762 40.427 120.037"/>
      <polygon points="29.625 108.627 0.001 108.627 0.001 114.352 35.044 114.352 29.625 108.627"/>
      <polygon points="94.442 177.09 0.001 177.09 0.001 182.815 99.863 182.815 94.442 177.09"/>
      <polygon points="83.639 165.68 0.001 165.68 0.001 171.404 89.059 171.404 83.639 165.68"/>
      <polygon points="72.836 154.27 0.001 154.27 0.001 159.994 78.256 159.994 72.836 154.27"/>
      <polygon points="62.033 142.858 0.001 142.858 0.001 148.583 67.453 148.583 62.033 142.858"/>
      <polygon points="116.034 199.897 0.001 199.897 0.001 205.622 121.453 205.622 116.034 199.897"/>
      <polygon points="105.231 188.486 0.001 188.486 0.001 194.21 110.652 194.21 105.231 188.486"/>
      <polygon points="51.231 80.173 0.001 80.173 0.001 74.449 56.65 74.449 51.231 80.173"/>
      <polygon points="40.427 91.583 0.001 91.583 0.001 85.859 45.847 85.859 40.427 91.583"/>
      <polygon points="29.625 102.994 0.001 102.994 0.001 97.27 35.044 97.27 29.625 102.994"/>
      <polygon points="94.442 34.531 0.001 34.531 0.001 28.806 99.863 28.806 94.442 34.531"/>
      <polygon points="83.639 45.942 0.001 45.942 0.001 40.216 89.059 40.216 83.639 45.942"/>
      <polygon points="72.836 57.352 0.001 57.352 0.001 51.628 78.256 51.628 72.836 57.352"/>
      <polygon points="62.033 68.762 0.001 68.762 0.001 63.038 67.453 63.038 62.033 68.762"/>
      <polygon points="116.034 11.724 0.001 11.724 0.001 6 121.453 6 116.034 11.724"/>
      <polygon points="105.231 23.135 0.001 23.135 0.001 17.41 110.652 17.41 105.231 23.135"/>
    </g>
    <g>
      <polygon class="c" points="150.88 100 98.994 100 199.992 201.227 200 149.056 150.88 100"/>
      <polygon class="c" points="50.314 100.01 0 100.01 100.952 200.94 151.32 200.94 50.314 100.01"/>
      <polygon class="c" points="150.88 100 98.994 100 199.992 -1.227 200 50.943 150.88 100"/>
      <polygon class="c" points="50.314 99.989 0 99.989 100.952 -0.941 151.32 -0.941 50.314 99.989"/>
    </g>
  </g>
</svg>
