<svg xmlns="http://www.w3.org/2000/svg" xmlns:xlink="http://www.w3.org/1999/xlink" viewBox="0 0 200 200">
  <defs>
    <style>
      .a {
        fill: none;
      }

      .b {
        fill: #25408e;
      }

      .c {
        clip-path: url(#a);
      }

      .d {
        fill: #00bc00;
      }

      .e {
        fill: #231f20;
      }

      .f {
        fill: #fd0;
      }

      .g {
        fill: #e6af27;
      }

      .h {
        fill: #ff008b;
      }

      .i {
        fill: #d70000;
      }
    </style>
    <clipPath id="a">
      <rect class="a" x="-152.26307" y="0.00207" width="443.26206" height="199.73244"/>
    </clipPath>
  </defs>
  <title>pattern-3</title>
  <g>
    <rect x="-1152.45135" y="0.20155" width="1321.79641" height="199.60079"/>
    <rect class="b" x="-152.25869" y="0.00024" width="443.25767" height="199.99976"/>
    <g class="c">
      <path class="d" d="M1.97343-9.13282A7.34545,7.34545,0,0,0-5.36333-1.794,7.34449,7.34449,0,0,0,1.97343,5.54068,7.344,7.344,0,0,0,9.30775-1.794,7.34493,7.34493,0,0,0,1.97343-9.13282"/>
      <path class="d" d="M21.92262-9.13282A7.34545,7.34545,0,0,0,14.58587-1.794a7.34449,7.34449,0,0,0,7.33675,7.33468A7.34647,7.34647,0,0,0,29.26132-1.794a7.34743,7.34743,0,0,0-7.3387-7.33882"/>
      <path class="d" d="M41.87571-9.13282A7.34628,7.34628,0,0,0,34.53652-1.794a7.34532,7.34532,0,0,0,7.33919,7.33468A7.344,7.344,0,0,0,49.21-1.794a7.34493,7.34493,0,0,0-7.33432-7.33882"/>
      <path class="d" d="M61.8249-9.13282A7.34545,7.34545,0,0,0,54.48815-1.794,7.34449,7.34449,0,0,0,61.8249,5.54068,7.34439,7.34439,0,0,0,69.16117-1.794,7.34535,7.34535,0,0,0,61.8249-9.13282"/>
      <path class="d" d="M81.776-9.13282A7.34545,7.34545,0,0,0,74.43929-1.794,7.34449,7.34449,0,0,0,81.776,5.54068,7.34439,7.34439,0,0,0,89.11231-1.794,7.34535,7.34535,0,0,0,81.776-9.13282"/>
      <path class="d" d="M101.72328-9.13282A7.345,7.345,0,0,0,94.38848-1.794a7.34408,7.34408,0,0,0,7.33481,7.33468A7.34689,7.34689,0,0,0,109.06394-1.794a7.34784,7.34784,0,0,0-7.34065-7.33882"/>
      <path class="d" d="M121.67637-9.13282A7.34753,7.34753,0,0,0,114.33718-1.794a7.34658,7.34658,0,0,0,7.33919,7.33468A7.34439,7.34439,0,0,0,129.01264-1.794a7.34535,7.34535,0,0,0-7.33627-7.33882"/>
      <path class="d" d="M141.62751-9.13282A7.3467,7.3467,0,0,0,134.29076-1.794a7.34574,7.34574,0,0,0,7.33675,7.33468,7.34647,7.34647,0,0,0,7.3387-7.33468,7.34743,7.34743,0,0,0-7.3387-7.33882"/>
      <path class="d" d="M161.57865-9.13282A7.34545,7.34545,0,0,0,154.2419-1.794a7.34449,7.34449,0,0,0,7.33675,7.33468A7.34439,7.34439,0,0,0,168.91492-1.794a7.34535,7.34535,0,0,0-7.33627-7.33882"/>
      <path class="d" d="M181.52785-9.13282A7.3467,7.3467,0,0,0,174.19109-1.794a7.34574,7.34574,0,0,0,7.33675,7.33468,7.34647,7.34647,0,0,0,7.3387-7.33468,7.34743,7.34743,0,0,0-7.3387-7.33882"/>
      <path class="d" d="M201.48093-9.13282A7.3492,7.3492,0,0,0,194.1398-1.794a7.34824,7.34824,0,0,0,7.34114,7.33468A7.34439,7.34439,0,0,0,208.8172-1.794a7.34535,7.34535,0,0,0-7.33627-7.33882"/>
      <path class="d" d="M4.42665,18.37282a7.33651,7.33651,0,1,0,7.33627-7.3387,7.34483,7.34483,0,0,0-7.33627,7.3387"/>
      <path class="d" d="M24.37584,18.37282a7.33651,7.33651,0,1,0,7.33627-7.3387,7.34483,7.34483,0,0,0-7.33627,7.3387"/>
      <path class="d" d="M44.327,18.37282a7.33651,7.33651,0,1,0,7.33627-7.3387,7.34608,7.34608,0,0,0-7.33627,7.3387"/>
      <path class="d" d="M64.27812,18.37282a7.33651,7.33651,0,1,0,7.33627-7.3387,7.34483,7.34483,0,0,0-7.33627,7.3387"/>
      <path class="d" d="M84.22731,18.37282a7.33651,7.33651,0,1,0,7.3387-7.3387,7.3466,7.3466,0,0,0-7.3387,7.3387"/>
      <path class="d" d="M104.17845,18.37282a7.33651,7.33651,0,1,0,7.33627-7.3387,7.34483,7.34483,0,0,0-7.33627,7.3387"/>
      <path class="d" d="M124.12959,18.37282a7.33651,7.33651,0,1,0,7.33627-7.3387,7.34483,7.34483,0,0,0-7.33627,7.3387"/>
      <path class="d" d="M144.08073,18.37282a7.33651,7.33651,0,1,0,7.33627-7.3387,7.34483,7.34483,0,0,0-7.33627,7.3387"/>
      <path class="d" d="M164.03187,18.37282a7.33651,7.33651,0,1,0,7.33627-7.3387,7.34483,7.34483,0,0,0-7.33627,7.3387"/>
      <path class="d" d="M183.983,18.37282a7.33651,7.33651,0,1,0,7.33432-7.3387,7.34316,7.34316,0,0,0-7.33432,7.3387"/>
      <path class="d" d="M1.97343,31.202a7.33676,7.33676,0,1,0,7.33432,7.33675A7.345,7.345,0,0,0,1.97343,31.202"/>
      <path class="d" d="M21.92262,31.202a7.33675,7.33675,0,1,0,7.3387,7.33675,7.345,7.345,0,0,0-7.3387-7.33675"/>
      <path class="d" d="M41.87571,31.202A7.33676,7.33676,0,1,0,49.21,38.53879,7.34584,7.34584,0,0,0,41.87571,31.202"/>
      <path class="d" d="M61.8249,31.202a7.33675,7.33675,0,1,0,7.33627,7.33675A7.345,7.345,0,0,0,61.8249,31.202"/>
      <path class="d" d="M81.776,31.202a7.33675,7.33675,0,1,0,7.33627,7.33675A7.345,7.345,0,0,0,81.776,31.202"/>
      <path class="d" d="M101.72328,31.202a7.33676,7.33676,0,1,0,7.34065,7.33675,7.3446,7.3446,0,0,0-7.34065-7.33675"/>
      <path class="d" d="M121.67637,31.202a7.33675,7.33675,0,1,0,7.33627,7.33675,7.34709,7.34709,0,0,0-7.33627-7.33675"/>
      <path class="d" d="M141.62751,31.202a7.33675,7.33675,0,1,0,7.3387,7.33675,7.34626,7.34626,0,0,0-7.3387-7.33675"/>
      <path class="d" d="M161.57865,31.202a7.33675,7.33675,0,1,0,7.33627,7.33675,7.345,7.345,0,0,0-7.33627-7.33675"/>
      <path class="d" d="M181.52785,31.202a7.33675,7.33675,0,1,0,7.3387,7.33675,7.34626,7.34626,0,0,0-7.3387-7.33675"/>
      <path class="d" d="M201.48093,31.202a7.33675,7.33675,0,1,0,7.33627,7.33675,7.34876,7.34876,0,0,0-7.33627-7.33675"/>
      <path class="d" d="M4.42665,58.70573a7.33651,7.33651,0,1,0,7.33627-7.33663,7.34535,7.34535,0,0,0-7.33627,7.33663"/>
      <path class="d" d="M24.37584,58.70573a7.33651,7.33651,0,1,0,7.33627-7.33663,7.34535,7.34535,0,0,0-7.33627,7.33663"/>
      <path class="d" d="M44.327,58.70573a7.33651,7.33651,0,1,0,7.33627-7.33663A7.3466,7.3466,0,0,0,44.327,58.70573"/>
      <path class="d" d="M64.27812,58.70573a7.33651,7.33651,0,1,0,7.33627-7.33663,7.34535,7.34535,0,0,0-7.33627,7.33663"/>
      <path class="d" d="M84.22731,58.70573A7.33651,7.33651,0,1,0,91.566,51.3691a7.34712,7.34712,0,0,0-7.3387,7.33663"/>
      <path class="d" d="M104.17845,58.70573a7.33651,7.33651,0,1,0,7.33627-7.33663,7.34535,7.34535,0,0,0-7.33627,7.33663"/>
      <path class="d" d="M124.12959,58.70573a7.33651,7.33651,0,1,0,7.33627-7.33663,7.34535,7.34535,0,0,0-7.33627,7.33663"/>
      <path class="d" d="M144.08073,58.70573A7.33651,7.33651,0,1,0,151.417,51.3691a7.34535,7.34535,0,0,0-7.33627,7.33663"/>
      <path class="d" d="M164.03187,58.70573a7.33651,7.33651,0,1,0,7.33627-7.33663,7.34535,7.34535,0,0,0-7.33627,7.33663"/>
      <path class="d" d="M183.983,58.70573a7.33651,7.33651,0,1,0,7.33432-7.33663,7.34368,7.34368,0,0,0-7.33432,7.33663"/>
      <path class="d" d="M1.97343,71.537a7.33676,7.33676,0,1,0,7.33432,7.33675A7.345,7.345,0,0,0,1.97343,71.537"/>
      <path class="d" d="M21.92262,71.537a7.33675,7.33675,0,1,0,7.3387,7.33675,7.345,7.345,0,0,0-7.3387-7.33675"/>
      <path class="d" d="M41.87571,71.537A7.33676,7.33676,0,1,0,49.21,78.87377,7.34584,7.34584,0,0,0,41.87571,71.537"/>
      <path class="d" d="M61.8249,71.537a7.33675,7.33675,0,1,0,7.33627,7.33675A7.345,7.345,0,0,0,61.8249,71.537"/>
      <path class="d" d="M81.776,71.537a7.33675,7.33675,0,1,0,7.33627,7.33675A7.345,7.345,0,0,0,81.776,71.537"/>
      <path class="d" d="M101.72328,71.537a7.33676,7.33676,0,1,0,7.34065,7.33675,7.3446,7.3446,0,0,0-7.34065-7.33675"/>
      <path class="d" d="M121.67637,71.537a7.33675,7.33675,0,1,0,7.33627,7.33675,7.34709,7.34709,0,0,0-7.33627-7.33675"/>
      <path class="d" d="M141.62751,71.537a7.33675,7.33675,0,1,0,7.3387,7.33675,7.34626,7.34626,0,0,0-7.3387-7.33675"/>
      <path class="d" d="M161.57865,71.537a7.33675,7.33675,0,1,0,7.33627,7.33675,7.345,7.345,0,0,0-7.33627-7.33675"/>
      <path class="d" d="M181.52785,71.537a7.33675,7.33675,0,1,0,7.3387,7.33675,7.34626,7.34626,0,0,0-7.3387-7.33675"/>
      <path class="d" d="M201.48093,71.537a7.33675,7.33675,0,1,0,7.33627,7.33675,7.34876,7.34876,0,0,0-7.33627-7.33675"/>
      <path class="d" d="M4.42665,99.04046a7.33651,7.33651,0,1,0,7.33627-7.33663,7.34535,7.34535,0,0,0-7.33627,7.33663"/>
      <path class="d" d="M24.37584,99.04046a7.33651,7.33651,0,1,0,7.33627-7.33663,7.34535,7.34535,0,0,0-7.33627,7.33663"/>
      <path class="d" d="M44.327,99.04046a7.33651,7.33651,0,1,0,7.33627-7.33663A7.3466,7.3466,0,0,0,44.327,99.04046"/>
      <path class="d" d="M64.27812,99.04046a7.33651,7.33651,0,1,0,7.33627-7.33663,7.34535,7.34535,0,0,0-7.33627,7.33663"/>
      <path class="d" d="M84.22731,99.04046a7.33651,7.33651,0,1,0,7.3387-7.33663,7.34712,7.34712,0,0,0-7.3387,7.33663"/>
      <path class="d" d="M104.17845,99.04046a7.33651,7.33651,0,1,0,7.33627-7.33663,7.34535,7.34535,0,0,0-7.33627,7.33663"/>
      <path class="d" d="M124.12959,99.04046a7.33651,7.33651,0,1,0,7.33627-7.33663,7.34535,7.34535,0,0,0-7.33627,7.33663"/>
      <path class="d" d="M144.08073,99.04046a7.33651,7.33651,0,1,0,7.33627-7.33663,7.34535,7.34535,0,0,0-7.33627,7.33663"/>
      <path class="d" d="M164.03187,99.04046a7.33651,7.33651,0,1,0,7.33627-7.33663,7.34535,7.34535,0,0,0-7.33627,7.33663"/>
      <path class="d" d="M183.983,99.04046a7.33651,7.33651,0,1,0,7.33432-7.33663,7.34368,7.34368,0,0,0-7.33432,7.33663"/>
      <path class="d" d="M1.97343,111.87175a7.33676,7.33676,0,1,0,7.33432,7.33675,7.345,7.345,0,0,0-7.33432-7.33675"/>
      <path class="d" d="M21.92262,111.87175a7.33675,7.33675,0,1,0,7.3387,7.33675,7.345,7.345,0,0,0-7.3387-7.33675"/>
      <path class="d" d="M41.87571,111.87175A7.33676,7.33676,0,1,0,49.21,119.2085a7.34584,7.34584,0,0,0-7.33432-7.33675"/>
      <path class="d" d="M61.8249,111.87175a7.33675,7.33675,0,1,0,7.33627,7.33675,7.345,7.345,0,0,0-7.33627-7.33675"/>
      <path class="d" d="M81.776,111.87175a7.33675,7.33675,0,1,0,7.33627,7.33675,7.345,7.345,0,0,0-7.33627-7.33675"/>
      <path class="d" d="M101.72328,111.87175a7.33676,7.33676,0,1,0,7.34065,7.33675,7.3446,7.3446,0,0,0-7.34065-7.33675"/>
      <path class="d" d="M121.67637,111.87175a7.33675,7.33675,0,1,0,7.33627,7.33675,7.34709,7.34709,0,0,0-7.33627-7.33675"/>
      <path class="d" d="M141.62751,111.87175a7.33675,7.33675,0,1,0,7.3387,7.33675,7.34626,7.34626,0,0,0-7.3387-7.33675"/>
      <path class="d" d="M161.57865,111.87175a7.33675,7.33675,0,1,0,7.33627,7.33675,7.345,7.345,0,0,0-7.33627-7.33675"/>
      <path class="d" d="M181.52785,111.87175a7.33675,7.33675,0,1,0,7.3387,7.33675,7.34626,7.34626,0,0,0-7.3387-7.33675"/>
      <path class="d" d="M201.48093,111.87175a7.33675,7.33675,0,1,0,7.33627,7.33675,7.34876,7.34876,0,0,0-7.33627-7.33675"/>
      <path class="d" d="M4.42665,139.37544a7.33651,7.33651,0,1,0,7.33627-7.33663,7.34535,7.34535,0,0,0-7.33627,7.33663"/>
      <path class="d" d="M24.37584,139.37544a7.33651,7.33651,0,1,0,7.33627-7.33663,7.34535,7.34535,0,0,0-7.33627,7.33663"/>
      <path class="d" d="M44.327,139.37544a7.33651,7.33651,0,1,0,7.33627-7.33663,7.3466,7.3466,0,0,0-7.33627,7.33663"/>
      <path class="d" d="M64.27812,139.37544a7.33651,7.33651,0,1,0,7.33627-7.33663,7.34535,7.34535,0,0,0-7.33627,7.33663"/>
      <path class="d" d="M84.22731,139.37544a7.33651,7.33651,0,1,0,7.3387-7.33663,7.34712,7.34712,0,0,0-7.3387,7.33663"/>
      <path class="d" d="M104.17845,139.37544a7.33651,7.33651,0,1,0,7.33627-7.33663,7.34535,7.34535,0,0,0-7.33627,7.33663"/>
      <path class="d" d="M124.12959,139.37544a7.33651,7.33651,0,1,0,7.33627-7.33663,7.34535,7.34535,0,0,0-7.33627,7.33663"/>
      <path class="d" d="M144.08073,139.37544a7.33651,7.33651,0,1,0,7.33627-7.33663,7.34535,7.34535,0,0,0-7.33627,7.33663"/>
      <path class="d" d="M164.03187,139.37544a7.33651,7.33651,0,1,0,7.33627-7.33663,7.34535,7.34535,0,0,0-7.33627,7.33663"/>
      <path class="d" d="M183.983,139.37544a7.33651,7.33651,0,1,0,7.33432-7.33663,7.34368,7.34368,0,0,0-7.33432,7.33663"/>
      <path class="d" d="M1.97343,152.20648a7.33676,7.33676,0,1,0,7.33432,7.33675,7.345,7.345,0,0,0-7.33432-7.33675"/>
      <path class="d" d="M21.92262,152.20648a7.33675,7.33675,0,1,0,7.3387,7.33675,7.345,7.345,0,0,0-7.3387-7.33675"/>
      <path class="d" d="M41.87571,152.20648A7.33676,7.33676,0,1,0,49.21,159.54324a7.34584,7.34584,0,0,0-7.33432-7.33675"/>
      <path class="d" d="M61.8249,152.20648a7.33675,7.33675,0,1,0,7.33627,7.33675,7.345,7.345,0,0,0-7.33627-7.33675"/>
      <path class="d" d="M81.776,152.20648a7.33675,7.33675,0,1,0,7.33627,7.33675,7.345,7.345,0,0,0-7.33627-7.33675"/>
      <path class="d" d="M101.72328,152.20648a7.33676,7.33676,0,1,0,7.34065,7.33675,7.3446,7.3446,0,0,0-7.34065-7.33675"/>
      <path class="d" d="M121.67637,152.20648a7.33675,7.33675,0,1,0,7.33627,7.33675,7.34709,7.34709,0,0,0-7.33627-7.33675"/>
      <path class="d" d="M141.62751,152.20648a7.33675,7.33675,0,1,0,7.3387,7.33675,7.34626,7.34626,0,0,0-7.3387-7.33675"/>
      <path class="d" d="M161.57865,152.20648a7.33675,7.33675,0,1,0,7.33627,7.33675,7.345,7.345,0,0,0-7.33627-7.33675"/>
      <path class="d" d="M181.52785,152.20648a7.33675,7.33675,0,1,0,7.3387,7.33675,7.34626,7.34626,0,0,0-7.3387-7.33675"/>
      <path class="d" d="M201.48093,152.20648a7.33675,7.33675,0,1,0,7.33627,7.33675,7.34876,7.34876,0,0,0-7.33627-7.33675"/>
      <path class="d" d="M4.42665,179.7103a7.33651,7.33651,0,1,0,7.33627-7.33663,7.34535,7.34535,0,0,0-7.33627,7.33663"/>
      <path class="d" d="M24.37584,179.7103a7.33651,7.33651,0,1,0,7.33627-7.33663,7.34535,7.34535,0,0,0-7.33627,7.33663"/>
      <path class="d" d="M44.327,179.7103a7.33651,7.33651,0,1,0,7.33627-7.33663A7.3466,7.3466,0,0,0,44.327,179.7103"/>
      <path class="d" d="M64.27812,179.7103a7.33651,7.33651,0,1,0,7.33627-7.33663,7.34535,7.34535,0,0,0-7.33627,7.33663"/>
      <path class="d" d="M84.22731,179.7103a7.33651,7.33651,0,1,0,7.3387-7.33663,7.34712,7.34712,0,0,0-7.3387,7.33663"/>
      <path class="d" d="M104.17845,179.7103a7.33651,7.33651,0,1,0,7.33627-7.33663,7.34535,7.34535,0,0,0-7.33627,7.33663"/>
      <path class="d" d="M124.12959,179.7103a7.33651,7.33651,0,1,0,7.33627-7.33663,7.34535,7.34535,0,0,0-7.33627,7.33663"/>
      <path class="d" d="M144.08073,179.7103a7.33651,7.33651,0,1,0,7.33627-7.33663,7.34535,7.34535,0,0,0-7.33627,7.33663"/>
      <path class="d" d="M164.03187,179.7103a7.33651,7.33651,0,1,0,7.33627-7.33663,7.34535,7.34535,0,0,0-7.33627,7.33663"/>
      <path class="d" d="M183.983,179.7103a7.33651,7.33651,0,1,0,7.33432-7.33663,7.34368,7.34368,0,0,0-7.33432,7.33663"/>
      <path class="d" d="M1.97343,192.53951a7.33676,7.33676,0,1,0,7.33432,7.33882,7.34545,7.34545,0,0,0-7.33432-7.33882"/>
      <path class="d" d="M21.92262,192.53951a7.33675,7.33675,0,1,0,7.3387,7.33882,7.34545,7.34545,0,0,0-7.3387-7.33882"/>
      <path class="d" d="M41.87571,192.53951A7.33676,7.33676,0,1,0,49.21,199.87834a7.34628,7.34628,0,0,0-7.33432-7.33882"/>
      <path class="d" d="M61.8249,192.53951a7.33675,7.33675,0,1,0,7.33627,7.33882,7.34545,7.34545,0,0,0-7.33627-7.33882"/>
      <path class="d" d="M81.776,192.53951a7.33675,7.33675,0,1,0,7.33627,7.33882,7.34545,7.34545,0,0,0-7.33627-7.33882"/>
      <path class="d" d="M101.72328,192.53951a7.33676,7.33676,0,1,0,7.34065,7.33882,7.345,7.345,0,0,0-7.34065-7.33882"/>
      <path class="d" d="M121.67637,192.53951a7.33675,7.33675,0,1,0,7.33627,7.33882,7.34753,7.34753,0,0,0-7.33627-7.33882"/>
      <path class="d" d="M141.62751,192.53951a7.33675,7.33675,0,1,0,7.3387,7.33882,7.3467,7.3467,0,0,0-7.3387-7.33882"/>
      <path class="d" d="M161.57865,192.53951a7.33675,7.33675,0,1,0,7.33627,7.33882,7.34545,7.34545,0,0,0-7.33627-7.33882"/>
      <path class="d" d="M181.52785,192.53951a7.33675,7.33675,0,1,0,7.3387,7.33882,7.3467,7.3467,0,0,0-7.3387-7.33882"/>
      <path class="d" d="M201.48093,192.53951a7.33675,7.33675,0,1,0,7.33627,7.33882,7.3492,7.3492,0,0,0-7.33627-7.33882"/>
    </g>
    <polygon class="e" points="304.035 0.002 104.232 199.804 441.637 199.804 441.637 0.002 304.035 0.002"/>
    <polygon class="f" points="260.684 0 60.883 199.802 441.636 199.802 441.636 0 260.684 0"/>
    <polygon class="g" points="343.806 0 144.002 199.804 309.846 199.804 441.638 68.014 441.638 0 343.806 0"/>
    <polygon class="h" points="-105.041 0.002 -304.843 199.802 -139.003 199.802 60.797 0.002 -105.041 0.002"/>
    <polygon class="i" points="1.256 0.002 -198.546 199.804 -169.884 199.804 29.917 0.002 1.256 0.002"/>
  </g>
</svg>
